<svg width="96" height="96" xmlns="http://www.w3.org/2000/svg" xmlns:xlink="http://www.w3.org/1999/xlink" xml:space="preserve" overflow="hidden"><g transform="translate(-869 -213)"><path d="M954.5 288.6 942 276.1C940.3 274.4 938 273.8 935.8 274.2L931.4 269.8C935.3 264.8 937.6 258.4 937.6 251.6 937.6 235.1 924.1 221.6 907.6 221.6 891.1 221.6 877.6 235.1 877.6 251.6 877.6 268.1 891.1 281.6 907.6 281.6 914.4 281.6 920.7 279.3 925.8 275.4L930.2 279.8C929.8 282 930.4 284.3 932.1 286L944.6 298.5C946 299.9 947.8 300.6 949.6 300.6 951.4 300.6 953.2 299.9 954.6 298.5 957.2 295.7 957.2 291.3 954.5 288.6ZM907.5 275.5C894.3 275.5 883.5 264.7 883.5 251.5 883.5 238.3 894.3 227.5 907.5 227.5 920.7 227.5 931.5 238.3 931.5 251.5 931.5 264.7 920.7 275.5 907.5 275.5Z" stroke="#196B24" stroke-width="1.33333" fill="#FFFFFF"/></g></svg>