<svg width="96" height="96" xmlns="http://www.w3.org/2000/svg" xmlns:xlink="http://www.w3.org/1999/xlink" xml:space="preserve" overflow="hidden"><g transform="translate(-340 -207)"><path d="M430 232C430 231.005 429.506 230.076 428.683 229.518L415.021 215.877C413.858 214.697 411.958 214.683 410.779 215.846 409.598 217.009 409.585 218.909 410.748 220.089 410.759 220.1 410.77 220.112 410.782 220.123L419.676 229 414 229C402.964 229.011 392.888 235.279 388 245.174 383.112 235.279 373.037 229.011 362 229L356.33 229 365.224 220.123C366.406 218.962 366.423 217.062 365.262 215.881 364.101 214.699 362.201 214.682 361.019 215.843 361.008 215.854 360.996 215.865 360.985 215.877L347.319 229.518C346.494 230.075 346 231.005 346 232 346 232.013 346 232.024 346 232.037 346 232.05 346 232.062 346 232.074 345.999 232.872 346.316 233.637 346.881 234.2L360.844 248.159C362.025 249.321 363.924 249.306 365.086 248.125 366.235 246.958 366.236 245.085 365.087 243.917L356.17 235 362 235C374.697 235.014 384.986 245.303 385 258L385 292C385 293.657 386.343 295 388 295L388 295C389.657 295 391 293.657 391 292L391 258C391.014 245.303 401.303 235.014 414 235L419.832 235 410.92 243.917C409.739 245.079 409.724 246.979 410.886 248.16 412.048 249.34 413.948 249.356 415.128 248.194 415.14 248.182 415.152 248.171 415.163 248.159L429.125 234.2C429.687 233.636 430.002 232.871 430 232.074 430 232.062 430 232.049 430 232.037 430 232.025 430 232.013 430 232Z" stroke="#000000" stroke-width="1.33333" fill="#0F9ED5"/></g></svg>