<svg width="96" height="96" xmlns="http://www.w3.org/2000/svg" xmlns:xlink="http://www.w3.org/1999/xlink" xml:space="preserve" overflow="hidden"><g transform="translate(-318 -264)"><path d="M366 324 389 324 389 307.882C384.164 307.336 379.757 304.853 376.784 301L366 301ZM369 304 373 304 373 308 369 308Z" stroke="#000000" stroke-width="1.33333" fill="#4EA72E"/><path d="M373 290C372.997 286.467 374.041 283.012 376 280.072L376 275 353 275 353 298 374.9 298C373.653 295.517 373.002 292.778 373 290ZM360 282 356 282 356 278 360 278Z" stroke="#000000" stroke-width="1.33333" fill="#4EA72E"/><path d="M363 301 340 301 340 324 363 324ZM347 308 343 308 343 304 347 304Z" stroke="#000000" stroke-width="1.33333" fill="#4EA72E"/><path d="M379 350 401 350 401 327 379 327ZM382 330 386 330 386 334 382 334Z" stroke="#000000" stroke-width="1.33333" fill="#4EA72E"/><path d="M353 350 376 350 376 327 353 327ZM356 330 360 330 360 334 356 334Z" stroke="#000000" stroke-width="1.33333" fill="#4EA72E"/><path d="M327 350 350 350 350 327 327 327ZM330 330 334 330 334 334 330 334Z" stroke="#000000" stroke-width="1.33333" fill="#4EA72E"/><path d="M391 275C382.716 275 376 281.716 376 290 376 298.284 382.716 305 391 305 399.284 305 406 298.284 406 290 406 281.716 399.284 275 391 275ZM388 297.121 380.939 290.061 383.061 287.939 388 292.879 397.939 282.939 400.061 285.061Z" stroke="#000000" stroke-width="1.33333" fill="#4EA72E"/></g></svg>