<svg width="96" height="96" xmlns="http://www.w3.org/2000/svg" xmlns:xlink="http://www.w3.org/1999/xlink" xml:space="preserve" overflow="hidden"><g transform="translate(-754 -312)"><path d="M788.5 355.5C788.5 363.5 795 370 803 370 811 370 817.5 363.5 817.5 355.5 817.5 347.5 811 341 803 341 795 341 788.5 347.5 788.5 355.5ZM811.1 359.8 811.1 362.9 794.8 362.9 794.8 359.8C794.8 359.2 795.1 358.6 795.6 358.2 796.8 357.3 798.1 356.7 799.6 356.3 800.7 356 801.8 355.8 803 355.8 804.1 355.8 805.3 356 806.4 356.3 807.8 356.7 809.2 357.3 810.4 358.2 810.8 358.6 811.1 359.2 811.1 359.8ZM803 346.6C805.2 346.6 807.1 348.4 807.1 350.7L807.1 350.7C807.1 352.9 805.3 354.8 803 354.8 800.8 354.8 798.9 353 798.9 350.7 798.9 348.4 800.7 346.6 803 346.6Z" fill="#196B24"/><path d="M845 344 848 344 848 347 845 347Z" fill="#196B24"/><path d="M827.9 344 830.8 344 830.8 347 827.9 347Z" fill="#196B24"/><path d="M833.7 344 836.6 344 836.6 347 833.7 347Z" fill="#196B24"/><path d="M839.4 344 842.3 344 842.3 347 839.4 347Z" fill="#196B24"/><path d="M822 344 825 344 825 347 822 347Z" fill="#196B24"/><path d="M822 332 825 332 825 335 822 335Z" fill="#196B24"/><path d="M822 338 825 338 825 341 822 341Z" fill="#196B24"/><path d="M822 326 825 326 825 329 822 329Z" fill="#196B24"/><path d="M822 320 825 320 825 323 822 323Z" fill="#196B24"/><path d="M833.7 320 836.6 320 836.6 323 833.7 323Z" fill="#196B24"/><path d="M839.4 320 842.3 320 842.3 323 839.4 323Z" fill="#196B24"/><path d="M827.9 320 830.8 320 830.8 323 827.9 323Z" fill="#196B24"/><path d="M845 320 848 320 848 323 845 323Z" fill="#196B24"/><path d="M845 326 848 326 848 329 845 329Z" fill="#196B24"/><path d="M845 332 848 332 848 335 845 335Z" fill="#196B24"/><path d="M845 338 848 338 848 341 845 341Z" fill="#196B24"/><path d="M824 372.5C824.1 372.7 824.3 372.8 824.5 372.8 824.6 372.8 824.7 372.7 824.8 372.5L826.3 368.4 831 373.1 833.1 371 828.4 366.3 832.5 364.8C832.7 364.7 832.8 364.5 832.8 364.3 832.8 364.2 832.7 364.1 832.5 364L820.6 360C820.6 360 820.5 360 820.5 360L820.5 360C820.3 360 820.1 360.2 820.1 360.4 820.1 360.4 820.1 360.5 820.1 360.5L824 372.5Z" fill="#196B24"/><path d="M783 336 756 336 756 357 783 357 783 336ZM780 354 759 354 759 339 780 339 780 354Z" fill="#196B24"/><path d="M763 341.5 775 341.5 775 344.5 763 344.5Z" fill="#196B24"/><path d="M763 347.5 771 347.5 771 350.5 763 350.5Z" fill="#196B24"/><path d="M839 327 827 327 827 333 837 333 837 342 843 342 843 331C843 328.8 841.2 327 839 327Z" fill="#196B24"/><path d="M837 377 769 377 769 361 763 361 763 379C763 381.2 764.8 383 767 383L795 383 795 389 785 389 785 395 821 395 821 389 811 389 811 383 839 383C841.2 383 843 381.2 843 379L843 349 837 349 837 377Z" fill="#196B24"/><path d="M820 327 767 327C764.8 327 763 328.8 763 331L763 333 820 333 820 327Z" fill="#196B24"/></g></svg>